<svg version="1.1" id="Layer_1" xmlns="http://www.w3.org/2000/svg" xmlns:xlink="http://www.w3.org/1999/xlink" x="0px" y="0px"
	 width="100%" viewBox="0 0 1024 1024" enable-background="new 0 0 1024 1024" xml:space="preserve">
<path fill="#000000" opacity="1.000000" stroke="none" 
	d="
M620.156738,786.084656 
	C657.922546,766.190063 691.098694,741.158752 718.260437,708.632812 
	C717.931213,708.204041 717.601990,707.775208 717.272766,707.346436 
	C712.077820,711.346680 706.887939,715.353638 701.687073,719.346191 
	C661.787231,749.974976 616.636597,768.476379 567.373779,777.460632 
	C545.814514,781.392578 523.997437,782.496643 502.232880,781.081909 
	C474.836273,779.301086 448.555298,772.198120 423.300751,761.324158 
	C378.202789,741.906189 342.313660,711.634155 316.272217,670.017029 
	C299.854736,643.780029 289.515381,615.238403 284.396301,584.584961 
	C280.905640,563.682373 280.916779,542.731262 281.983032,521.867188 
	C283.577118,490.674133 292.681213,461.127808 305.478943,432.703491 
	C325.698303,387.795197 357.114807,352.118439 396.666351,323.499329 
	C425.575470,302.580963 458.078156,289.270203 493.324066,283.970398 
	C534.596252,277.764404 573.195251,286.014435 607.835144,309.822449 
	C633.856384,327.706848 649.299377,353.105133 655.045166,383.677307 
	C663.191101,427.019836 654.808472,467.191345 627.128357,502.262604 
	C608.044006,526.442810 583.576294,543.284180 553.976257,552.165039 
	C548.884338,553.692810 547.071228,555.820007 547.240967,561.127869 
	C547.645569,573.782227 547.431702,586.456360 547.460205,599.122559 
	C547.465515,601.505554 547.648743,604.126587 544.078430,603.886963 
	C529.007324,602.875183 513.748962,605.094055 498.841553,601.338318 
	C492.995667,599.865479 487.415558,597.652039 482.424713,594.231445 
	C473.171173,587.889160 468.798828,578.657349 468.764923,567.801941 
	C468.576508,507.470032 468.708405,447.137115 468.581146,386.804871 
	C468.571869,382.412842 470.313324,381.553528 474.202026,381.580200 
	C494.367523,381.718567 514.534485,381.623901 534.700806,381.660553 
	C543.557983,381.676636 548.299194,386.344635 548.316284,395.224365 
	C548.370483,423.390503 548.332092,451.556793 548.342712,479.723022 
	C548.345581,487.326355 549.214355,488.040741 555.932434,484.745850 
	C579.755615,473.061768 593.941956,453.819824 598.514709,427.906708 
	C601.510193,410.932007 600.657471,393.955780 592.452454,378.268585 
	C581.856812,358.010529 563.813293,348.191772 542.149231,344.441803 
	C510.128082,338.899170 480.400330,346.897522 452.147583,361.384796 
	C409.453094,383.277496 380.603607,418.211029 360.136230,460.752045 
	C350.000580,481.818756 344.845062,504.087708 343.119934,527.454346 
	C340.028809,569.323303 349.006714,608.000427 371.330292,643.563171 
	C385.012604,665.359863 404.074341,681.494324 425.505463,695.182129 
	C446.949524,708.878235 470.610687,716.368896 495.587006,719.649292 
	C560.398865,728.161621 618.799438,710.646179 671.175720,673.188660 
	C723.490479,635.775269 761.639465,586.518372 785.691956,526.764893 
	C796.153564,500.775360 802.611694,473.657288 805.795715,445.739136 
	C807.309814,432.462952 807.785400,419.206604 807.625183,405.892212 
	C807.386902,386.092438 803.516602,366.956482 796.992493,348.306427 
	C795.842834,345.019958 794.962158,341.638611 794.003662,338.287811 
	C793.945374,338.083954 794.297668,337.762604 794.779419,336.965820 
	C799.600342,342.492737 803.224854,348.605652 806.803040,354.678650 
	C826.364197,387.878479 838.928101,423.528290 844.507812,461.711884 
	C847.844360,484.544617 848.580261,507.489716 847.113098,530.383667 
	C843.538574,586.158936 826.778809,637.675354 797.778320,685.721375 
	C773.834351,725.389954 743.396851,758.708008 705.929138,785.246887 
	C664.965271,814.262085 619.531982,833.498657 569.603577,841.547119 
	C552.613953,844.285889 535.629456,846.231995 518.473083,845.281189 
	C477.266144,842.997314 437.335358,835.401123 400.574799,815.432800 
	C400.008331,815.125122 399.461182,814.747314 398.995087,814.306946 
	C398.815735,814.137451 398.888336,813.701355 398.787018,812.945740 
	C475.993195,832.678467 549.397217,821.555969 620.156738,786.084656 
z"/>
<path fill="#000000" opacity="1.000000" stroke="none" 
	d="
M541.417053,184.391693 
	C592.379150,189.937866 638.129944,206.853439 677.312073,240.093262 
	C712.922729,270.303284 737.102356,307.808350 749.617432,352.675232 
	C754.432617,369.937622 756.627014,387.670258 757.633423,405.694702 
	C759.381836,437.009186 755.432495,467.295410 745.889404,497.087250 
	C735.458862,529.649475 717.814148,558.044800 696.853271,584.663818 
	C672.183228,615.993225 641.416260,639.740479 605.839355,657.276245 
	C583.690308,668.193420 560.118835,673.848389 535.355713,675.603699 
	C511.147034,677.319641 487.821259,674.828369 465.542328,665.184387 
	C433.745148,651.420227 410.209106,629.106323 397.148956,596.638611 
	C390.687469,580.575256 388.331207,563.701355 388.397858,546.387085 
	C388.524231,513.543457 399.952820,484.607025 418.308990,457.984833 
	C419.478943,456.288055 420.395844,454.227295 423.092743,453.252869 
	C421.265533,460.643829 419.271118,467.612671 417.840424,474.695343 
	C412.617340,500.552185 412.504059,526.391296 421.394806,551.432495 
	C434.852783,589.337280 460.893127,613.611267 501.453827,619.303650 
	C527.874512,623.011597 553.534424,618.310486 577.543152,606.330017 
	C615.923584,587.177979 646.111511,558.781616 669.183228,522.916077 
	C683.100830,501.280914 691.563782,477.385071 695.775757,451.905182 
	C698.039917,438.208008 699.130371,424.514587 698.616638,410.699524 
	C695.842896,336.111389 655.536072,276.789734 581.271118,252.942703 
	C552.080750,243.569458 522.366760,240.971436 492.136078,242.535049 
	C445.218109,244.961746 402.905731,260.449158 364.587555,287.744293 
	C337.047852,307.361664 312.829102,330.073212 292.955536,357.474335 
	C263.944031,397.474640 246.763657,442.241455 238.175140,490.645905 
	C234.849319,509.390106 233.314362,528.323120 233.596451,547.215515 
	C234.195450,587.331970 242.610931,625.944641 258.256958,663.028625 
	C279.155884,712.563110 311.329895,753.192261 353.661896,786.022705 
	C354.710266,786.835815 355.733673,787.687866 356.703430,788.591736 
	C357.021729,788.888550 357.133087,789.407288 357.326385,789.798706 
	C356.292419,790.867371 355.391602,790.261047 354.545227,789.811951 
	C323.083405,773.116028 292.926971,754.518982 267.967804,728.668823 
	C228.716904,688.016968 200.263702,641.159363 186.269043,585.977417 
	C178.576050,555.643372 177.453140,524.951599 179.519302,493.895020 
	C181.836945,459.058136 189.651184,425.548035 203.155945,393.461884 
	C222.153976,348.324280 249.784973,308.988739 285.294220,275.311157 
	C329.537506,233.350067 380.369385,203.246262 440.508148,190.090408 
	C462.655945,185.245407 485.010376,182.076752 507.666687,182.169998 
	C518.761841,182.215637 529.961731,182.277145 541.417053,184.391693 
z"/>
</svg>